<svg xmlns="http://www.w3.org/2000/svg" viewBox="0 0 600 360" width="600" height="360" style="background-color:#ffffff; font-family:sans-serif;">
<rect width="600" height="360" fill="#ffffff" />
<text x="300.0" y="24" text-anchor="middle" font-size="15" font-weight="bold" fill="#212529">Explanation Confidence Calibration (Bonus Track)</text>
<line x1="60" y1="300.0" x2="570" y2="300.0" stroke="#e9ecef" stroke-width="1" />
<text x="52" y="304.0" text-anchor="end" font-size="11" fill="#495057">0%</text>
<line x1="60" y1="249.0" x2="570" y2="249.0" stroke="#e9ecef" stroke-width="1" />
<text x="52" y="253.0" text-anchor="end" font-size="11" fill="#495057">20%</text>
<line x1="60" y1="198.0" x2="570" y2="198.0" stroke="#e9ecef" stroke-width="1" />
<text x="52" y="202.0" text-anchor="end" font-size="11" fill="#495057">40%</text>
<line x1="60" y1="147.0" x2="570" y2="147.0" stroke="#e9ecef" stroke-width="1" />
<text x="52" y="151.0" text-anchor="end" font-size="11" fill="#495057">60%</text>
<line x1="60" y1="96.0" x2="570" y2="96.0" stroke="#e9ecef" stroke-width="1" />
<text x="52" y="100.0" text-anchor="end" font-size="11" fill="#495057">80%</text>
<line x1="60" y1="45.0" x2="570" y2="45.0" stroke="#e9ecef" stroke-width="1" />
<text x="52" y="49.0" text-anchor="end" font-size="11" fill="#495057">100%</text>
<rect x="107.5" y="263.5" width="75.0" height="36.5" rx="4" fill="#ffd43b" stroke="#343a40" stroke-width="1" />
<text x="145.0" y="257.5" text-anchor="middle" font-size="12" font-weight="bold" fill="#212529">14.3%</text>
<text x="145.0" y="279.5" text-anchor="middle" font-size="10" fill="#495057">N=405</text>
<text x="145.0" y="318" text-anchor="middle" font-size="11" font-weight="bold" fill="#212529">Low Conf</text>
<text x="145.0" y="332" text-anchor="middle" font-size="10" fill="#868e96">[0.50 - 0.65)</text>
<rect x="277.5" y="266.3" width="75.0" height="33.7" rx="4" fill="#74c0fc" stroke="#343a40" stroke-width="1" />
<text x="315.0" y="260.3" text-anchor="middle" font-size="12" font-weight="bold" fill="#212529">13.2%</text>
<text x="315.0" y="282.3" text-anchor="middle" font-size="10" fill="#495057">N=53</text>
<text x="315.0" y="318" text-anchor="middle" font-size="11" font-weight="bold" fill="#212529">Medium Conf</text>
<text x="315.0" y="332" text-anchor="middle" font-size="10" fill="#868e96">[0.65 - 0.80)</text>
<rect x="447.5" y="258.4" width="75.0" height="41.6" rx="4" fill="#69db7c" stroke="#343a40" stroke-width="1" />
<text x="485.0" y="252.4" text-anchor="middle" font-size="12" font-weight="bold" fill="#212529">16.3%</text>
<text x="485.0" y="274.4" text-anchor="middle" font-size="10" fill="#495057">N=1029</text>
<text x="485.0" y="318" text-anchor="middle" font-size="11" font-weight="bold" fill="#212529">High Conf</text>
<text x="485.0" y="332" text-anchor="middle" font-size="10" fill="#868e96">[0.80 - 1.00]</text>
<line x1="60" y1="300" x2="570" y2="300" stroke="#495057" stroke-width="1.5" />
<line x1="60" y1="45" x2="60" y2="300" stroke="#495057" stroke-width="1.5" />
<text x="15" y="35" font-size="11" font-weight="bold" fill="#495057">Empirical Accuracy (%)</text>
</svg>